<svg xmlns="http://www.w3.org/2000/svg" viewBox="0 0 800 600" width="800" height="600">
  <style>
    @keyframes float {
      0% { transform: translateY(0px); }
      50% { transform: translateY(-20px); }
      100% { transform: translateY(0px); }
    }
    @keyframes blink {
      0% { opacity: 0; }
      50% { opacity: 1; }
      100% { opacity: 0; }
    }
    @keyframes spin {
      0% { transform: rotate(0deg); }
      100% { transform: rotate(360deg); }
    }
    .floating-server {
      animation: float 6s ease-in-out infinite;
    }
    .warning-light {
      animation: blink 2s ease-in-out infinite;
    }
    .gear {
      animation: spin 10s linear infinite;
    }
    .gear-reverse {
      animation: spin 15s linear reverse infinite;
    }
  </style>
  
  <!-- Background -->
  <rect width="800" height="600" fill="#f8f9fc" />
  
  <!-- Background elements -->
  <g class="background-elements">
    <!-- Code lines in background -->
    <text x="50" y="80" font-family="monospace" font-size="10" fill="#adb5bd">function serverError(code) {</text>
    <text x="70" y="100" font-family="monospace" font-size="10" fill="#adb5bd">if (code === 500) {</text>
    <text x="90" y="120" font-family="monospace" font-size="10" fill="#adb5bd">return "Internal Server Error";</text>
    <text x="70" y="140" font-family="monospace" font-size="10" fill="#adb5bd">}</text>
    <text x="50" y="160" font-family="monospace" font-size="10" fill="#adb5bd">}</text>
    
    <text x="500" y="200" font-family="monospace" font-size="10" fill="#adb5bd">try {</text>
    <text x="520" y="220" font-family="monospace" font-size="10" fill="#adb5bd">server.process();</text>
    <text x="500" y="240" font-family="monospace" font-size="10" fill="#adb5bd">} catch (error) {</text>
    <text x="520" y="260" font-family="monospace" font-size="10" fill="#adb5bd">console.error("500");</text>
    <text x="500" y="280" font-family="monospace" font-size="10" fill="#adb5bd">}</text>
    
    <text x="100" y="350" font-family="monospace" font-size="10" fill="#adb5bd">def handle_server_error():</text>
    <text x="120" y="370" font-family="monospace" font-size="10" fill="#adb5bd">return render_template('500.html')</text>
    
    <text x="550" y="400" font-family="monospace" font-size="10" fill="#adb5bd">class ServerError extends Error {</text>
    <text x="570" y="420" font-family="monospace" font-size="10" fill="#adb5bd">constructor() {</text>
    <text x="590" y="440" font-family="monospace" font-size="10" fill="#adb5bd">super("500 - Server Error");</text>
    <text x="570" y="460" font-family="monospace" font-size="10" fill="#adb5bd">}</text>
    <text x="550" y="480" font-family="monospace" font-size="10" fill="#adb5bd">}</text>
  </g>
  
  <!-- Floating server with error -->
  <g class="floating-server" transform="translate(400, 300)">
    <!-- Server rack -->
    <rect x="-80" y="-100" width="160" height="200" rx="5" fill="#ffffff" stroke="#6e8fff" stroke-width="3" />
    
    <!-- Server units -->
    <rect x="-70" y="-90" width="140" height="30" rx="2" fill="#e9ecef" stroke="#adb5bd" stroke-width="1" />
    <rect x="-70" y="-50" width="140" height="30" rx="2" fill="#e9ecef" stroke="#adb5bd" stroke-width="1" />
    <rect x="-70" y="-10" width="140" height="30" rx="2" fill="#ff6b6b" stroke="#dc3545" stroke-width="1" /> <!-- Error server -->
    <rect x="-70" y="30" width="140" height="30" rx="2" fill="#e9ecef" stroke="#adb5bd" stroke-width="1" />
    <rect x="-70" y="70" width="140" height="30" rx="2" fill="#e9ecef" stroke="#adb5bd" stroke-width="1" />
    
    <!-- Status lights -->
    <circle cx="-60" cy="-75" r="3" fill="#25e0a0" /> <!-- Green status -->
    <circle cx="-60" cy="-35" r="3" fill="#25e0a0" /> <!-- Green status -->
    <circle cx="-60" cy="5" r="5" fill="#ff6b6b" class="warning-light" /> <!-- Red error light -->
    <circle cx="-60" cy="45" r="3" fill="#25e0a0" /> <!-- Green status -->
    <circle cx="-60" cy="85" r="3" fill="#25e0a0" /> <!-- Green status -->
    
    <!-- 500 Error message -->
    <rect x="-50" y="-5" width="100" height="20" rx="3" fill="#ffffff" stroke="#ff6b6b" stroke-width="1" />
    <text x="0" y="10" font-family="monospace" font-size="16" font-weight="bold" fill="#ff6b6b" text-anchor="middle">Error 500</text>
    
    <!-- Decorative server details -->
    <rect x="-40" y="-85" width="80" height="10" rx="1" fill="#adb5bd" />
    <rect x="-40" y="-45" width="80" height="10" rx="1" fill="#adb5bd" />
    <rect x="-40" y="35" width="80" height="10" rx="1" fill="#adb5bd" />
    <rect x="-40" y="75" width="80" height="10" rx="1" fill="#adb5bd" />
  </g>
  
  <!-- Gears -->
  <g class="gear" transform="translate(200, 180)">
    <circle cx="0" cy="0" r="30" fill="#6e8fff" opacity="0.2" />
    <circle cx="0" cy="0" r="20" fill="#6e8fff" opacity="0.5" />
    <circle cx="0" cy="0" r="5" fill="#6e8fff" />
    <rect x="-5" y="-30" width="10" height="20" fill="#6e8fff" rx="2" />
    <rect x="-5" y="10" width="10" height="20" fill="#6e8fff" rx="2" />
    <rect x="-30" y="-5" width="20" height="10" fill="#6e8fff" rx="2" />
    <rect x="10" y="-5" width="20" height="10" fill="#6e8fff" rx="2" />
    <rect x="-25" y="-25" width="15" height="10" fill="#6e8fff" rx="2" transform="rotate(45)" />
    <rect x="10" y="-25" width="15" height="10" fill="#6e8fff" rx="2" transform="rotate(135)" />
    <rect x="-25" y="15" width="15" height="10" fill="#6e8fff" rx="2" transform="rotate(-45)" />
    <rect x="10" y="15" width="15" height="10" fill="#6e8fff" rx="2" transform="rotate(-135)" />
  </g>
  
  <g class="gear-reverse" transform="translate(600, 400)">
    <circle cx="0" cy="0" r="25" fill="#25e0a0" opacity="0.2" />
    <circle cx="0" cy="0" r="15" fill="#25e0a0" opacity="0.5" />
    <circle cx="0" cy="0" r="4" fill="#25e0a0" />
    <rect x="-4" y="-25" width="8" height="15" fill="#25e0a0" rx="2" />
    <rect x="-4" y="10" width="8" height="15" fill="#25e0a0" rx="2" />
    <rect x="-25" y="-4" width="15" height="8" fill="#25e0a0" rx="2" />
    <rect x="10" y="-4" width="15" height="8" fill="#25e0a0" rx="2" />
    <rect x="-20" y="-20" width="12" height="8" fill="#25e0a0" rx="2" transform="rotate(45)" />
    <rect x="12" y="-20" width="12" height="8" fill="#25e0a0" rx="2" transform="rotate(135)" />
    <rect x="-20" y="12" width="12" height="8" fill="#25e0a0" rx="2" transform="rotate(-45)" />
    <rect x="12" y="12" width="12" height="8" fill="#25e0a0" rx="2" transform="rotate(-135)" />
  </g>
</svg>
